HIERARCHY
ROOT hip
{
  OFFSET 0.00112043 5.09927 -9.65472
  CHANNELS 6 Xposition Yposition Zposition Zrotation Xrotation Yrotation
  JOINT abdomen
  {
    OFFSET 0 -1.186 -1.5018
    CHANNELS 3 Zrotation Xrotation Yrotation
    JOINT abdomen2
    {
      OFFSET 0 9.964 0.2134
      CHANNELS 3 Zrotation Xrotation Yrotation
      JOINT chest
      {
        OFFSET 0 13.134 -3.2573
        CHANNELS 3 Zrotation Xrotation Yrotation
        JOINT neck
        {
          OFFSET 0 20.686 -1.6905
          CHANNELS 3 Zrotation Xrotation Yrotation
          JOINT head
          {
            OFFSET 0 7.238 -0.1237
            CHANNELS 3 Zrotation Xrotation Yrotation
            End Site
            {
              OFFSET 0 0 0
            }
          }
        }
        JOINT lCollar
        {
          OFFSET 1.7069 20.075 5.0056
          CHANNELS 3 Zrotation Xrotation Yrotation
          JOINT lShldr
          {
            OFFSET 13.6458 -0.047 -4.849
            CHANNELS 3 Zrotation Xrotation Yrotation
            JOINT lForeArm
            {
              OFFSET 28.3255 -0.9759 2.2888
              CHANNELS 3 Zrotation Xrotation Yrotation
              JOINT lHand
              {
                OFFSET 22.1583 -0.53 10.8316
                CHANNELS 3 Zrotation Xrotation Yrotation
                JOINT lThumb1
                {
                  OFFSET 0.786 0.112 2.5817
                  CHANNELS 3 Zrotation Xrotation Yrotation
                  JOINT lThumb2
                  {
                    OFFSET 0.3601 -0.878 4.2331
                    CHANNELS 3 Zrotation Xrotation Yrotation
                    JOINT lThumb2_End
                    {
                      OFFSET 1.8127 -1.216 2.2227
                      CHANNELS 3 Zrotation Xrotation Yrotation
                      End Site
                      {
                        OFFSET 0.0181 -0.0122 0.0222
                      }
                    }
                  }
                }
                JOINT lCarpal1
                {
                  OFFSET 0.9571 1.114 1.7695
                  CHANNELS 3 Zrotation Xrotation Yrotation
                  JOINT lIndex1
                  {
                    OFFSET 4.1246 0.487 4.1451
                    CHANNELS 3 Zrotation Xrotation Yrotation
                    JOINT lIndex2
                    {
                      OFFSET 3.4052 -1.454 2.7682
                      CHANNELS 3 Zrotation Xrotation Yrotation
                      JOINT lIndex2_End
                      {
                        OFFSET 1.4531 -1.795 1.2713
                        CHANNELS 3 Zrotation Xrotation Yrotation
                        End Site
                        {
                          OFFSET 0.0145 -0.0179 0.0127
                        }
                      }
                    }
                  }
                  JOINT lMid1
                  {
                    OFFSET 5.6954 0.21 2.1184
                    CHANNELS 3 Zrotation Xrotation Yrotation
                    JOINT lMid2
                    {
                      OFFSET 3.9766 -1.54 2.3863
                      CHANNELS 3 Zrotation Xrotation Yrotation
                      JOINT lMid2_End
                      {
                        OFFSET 1.4042 -1.926 1.125
                        CHANNELS 3 Zrotation Xrotation Yrotation
                        End Site
                        {
                          OFFSET 0.014 -0.0193 0.0113
                        }
                      }
                    }
                  }
                }
                JOINT lCarpal2
                {
                  OFFSET 2.0956 0.66 -0.3894
                  CHANNELS 3 Zrotation Xrotation Yrotation
                  JOINT lRing1
                  {
                    OFFSET 5.0395 -0.09 2.4971
                    CHANNELS 3 Zrotation Xrotation Yrotation
                    JOINT lRing2
                    {
                      OFFSET 3.7921 -1.552 1.4806
                      CHANNELS 3 Zrotation Xrotation Yrotation
                      JOINT lRing2_End
                      {
                        OFFSET 1.4655 -1.808 0.9609
                        CHANNELS 3 Zrotation Xrotation Yrotation
                        End Site
                        {
                          OFFSET 0.0147 -0.0181 0.0096
                        }
                      }
                    }
                  }
                  JOINT lPinky1
                  {
                    OFFSET 4.9141 -1.269 0.3591
                    CHANNELS 3 Zrotation Xrotation Yrotation
                    JOINT lPinky2
                    {
                      OFFSET 3.1477 -1.685 0.8462
                      CHANNELS 3 Zrotation Xrotation Yrotation
                      JOINT lPinky2_End
                      {
                        OFFSET 0.8055 -1.585 0.7955
                        CHANNELS 3 Zrotation Xrotation Yrotation
                        End Site
                        {
                          OFFSET 0.0081 -0.0158 0.008
                        }
                      }
                    }
                  }
                }
              }
            }
          }
        }
        JOINT rCollar
        {
          OFFSET -1.7069 20.075 5.0056
          CHANNELS 3 Zrotation Xrotation Yrotation
          JOINT rShldr
          {
            OFFSET -13.6458 -0.047 -4.849
            CHANNELS 3 Zrotation Xrotation Yrotation
            JOINT rForeArm
            {
              OFFSET -28.3255 -0.9759 2.2888
              CHANNELS 3 Zrotation Xrotation Yrotation
              JOINT rHand
              {
                OFFSET -22.1583 -0.53 10.8316
                CHANNELS 3 Zrotation Xrotation Yrotation
                JOINT rThumb1
                {
                  OFFSET -0.786 0.112 2.5817
                  CHANNELS 3 Zrotation Xrotation Yrotation
                  JOINT rThumb2
                  {
                    OFFSET -0.3601 -0.878 4.2331
                    CHANNELS 3 Zrotation Xrotation Yrotation
                    JOINT rThumb2_End
                    {
                      OFFSET -1.8127 -1.216 2.2227
                      CHANNELS 3 Zrotation Xrotation Yrotation
                      End Site
                      {
                        OFFSET -0.0181 -0.0122 0.0222
                      }
                    }
                  }
                }
                JOINT rCarpal1
                {
                  OFFSET -0.9571 1.114 1.7695
                  CHANNELS 3 Zrotation Xrotation Yrotation
                  JOINT rIndex1
                  {
                    OFFSET -4.1246 0.487 4.1451
                    CHANNELS 3 Zrotation Xrotation Yrotation
                    JOINT rIndex2
                    {
                      OFFSET -3.4052 -1.454 2.7682
                      CHANNELS 3 Zrotation Xrotation Yrotation
                      JOINT rIndex2_End
                      {
                        OFFSET -1.4531 -1.795 1.2713
                        CHANNELS 3 Zrotation Xrotation Yrotation
                        End Site
                        {
                          OFFSET -0.0145 -0.018 0.0127
                        }
                      }
                    }
                  }
                  JOINT rMid1
                  {
                    OFFSET -5.6954 0.21 2.1184
                    CHANNELS 3 Zrotation Xrotation Yrotation
                    JOINT rMid2
                    {
                      OFFSET -3.9766 -1.54 2.3863
                      CHANNELS 3 Zrotation Xrotation Yrotation
                      JOINT rMid2_End
                      {
                        OFFSET -1.4042 -1.926 1.125
                        CHANNELS 3 Zrotation Xrotation Yrotation
                        End Site
                        {
                          OFFSET -0.014 -0.0193 0.0113
                        }
                      }
                    }
                  }
                }
                JOINT rCarpal2
                {
                  OFFSET -2.0956 0.66 -0.3894
                  CHANNELS 3 Zrotation Xrotation Yrotation
                  JOINT rRing1
                  {
                    OFFSET -5.0395 -0.09 2.4971
                    CHANNELS 3 Zrotation Xrotation Yrotation
                    JOINT rRing2
                    {
                      OFFSET -3.7921 -1.552 1.4806
                      CHANNELS 3 Zrotation Xrotation Yrotation
                      JOINT rRing2_End
                      {
                        OFFSET -1.4655 -1.808 0.9609
                        CHANNELS 3 Zrotation Xrotation Yrotation
                        End Site
                        {
                          OFFSET -0.0147 -0.0181 0.0096
                        }
                      }
                    }
                  }
                  JOINT rPinky1
                  {
                    OFFSET -4.9141 -1.269 0.3592
                    CHANNELS 3 Zrotation Xrotation Yrotation
                    JOINT rPinky2
                    {
                      OFFSET -3.1477 -1.685 0.8462
                      CHANNELS 3 Zrotation Xrotation Yrotation
                      JOINT rPinky2_End
                      {
                        OFFSET -0.8055 -1.585 0.7955
                        CHANNELS 3 Zrotation Xrotation Yrotation
                        End Site
                        {
                          OFFSET -0.0081 -0.0158 0.008
                        }
                      }
                    }
                  }
                }
              }
            }
          }
        }
      }
    }
  }
  JOINT lThigh
  {
    OFFSET 8.367 -8.2066 0.5982
    CHANNELS 3 Zrotation Xrotation Yrotation
    JOINT lShin
    {
      OFFSET 2.1923 -43.463 -0.4932
      CHANNELS 3 Zrotation Xrotation Yrotation
      JOINT lFoot
      {
        OFFSET 0.7333 -45.8593 -2.6451
        CHANNELS 3 Zrotation Xrotation Yrotation
        End Site
        {
          OFFSET 2.6618 -4.2699 12.3931
        }
      }
    }
  }
  JOINT rThigh
  {
    OFFSET -8.367 -8.2066 0.5982
    CHANNELS 3 Zrotation Xrotation Yrotation
    JOINT rShin
    {
      OFFSET -2.1923 -43.463 -0.4931
      CHANNELS 3 Zrotation Xrotation Yrotation
      JOINT rFoot
      {
        OFFSET -0.7333 -45.8593 -2.6451
        CHANNELS 3 Zrotation Xrotation Yrotation
        End Site
        {
          OFFSET -2.6618 -4.2699 12.3931
        }
      }
    }
  }
}
MOTION
Frames:	6
Frame Time:	0.0333333
42.3503 -2.16675 -1.96816 -0 -79.6006 -0 -0.0196487 3.70133 -0.105949 -0.0325241 7.40266 -0.211287 -0.0325242 7.40266 -0.211287 -9.97062 -14.7753 -21.8505 3.81621e-006 -35.9013 3.24802e-006 -0.543675 19.1876 -24.1854 -46.9878 9.15868 0.157413 -2.06027 12.0715 -2.7154 8.04891 35.9661 -18.1179 3.18055e-015 5.56597e-015 3.18055e-015 -3.18055e-015 6.36111e-015 -3.18055e-015 6.36111e-015 7.95139e-016 3.18055e-015 3.18055e-015 1.59028e-015 3.18055e-015 -3.18055e-015 3.18055e-015 1.59028e-014 -3.18055e-015 2.38542e-015 3.18055e-015 -3.53113e-031 6.36111e-015 3.18055e-015 -3.18055e-015 3.18055e-015 1.59028e-014 -3.18055e-015 2.38542e-015 3.18055e-015 -3.53113e-031 6.36111e-015 3.18055e-015 3.18055e-015 1.59028e-015 3.18055e-015 -3.18055e-015 3.18055e-015 1.59028e-014 -3.18055e-015 2.38542e-015 3.18055e-015 -3.53113e-031 6.36111e-015 3.18055e-015 -3.18055e-015 3.18055e-015 1.59028e-014 -3.18055e-015 2.38542e-015 3.18055e-015 -3.53113e-031 6.36111e-015 3.18055e-015 1.29273 19.3299 24.1447 46.9439 9.1477 0.567923 0.169891 11.7899 1.63385 -8.57336 35.4197 19.6117 3.18055e-015 8.74653e-015 -0 9.71059e-031 8.74653e-015 -6.36111e-015 -3.18055e-015 7.95139e-015 -3.18055e-015 3.18055e-015 7.95139e-016 6.36111e-015 -6.36111e-015 1.59028e-015 9.54166e-015 1.23589e-030 1.11319e-014 -6.36111e-015 6.36111e-015 7.95139e-015 -6.36111e-015 -6.36111e-015 1.59028e-015 9.54166e-015 1.23589e-030 1.11319e-014 -6.36111e-015 6.36111e-015 7.95139e-015 -6.36111e-015 3.18055e-015 7.95139e-016 6.36111e-015 -6.36111e-015 1.59028e-015 9.54166e-015 1.23589e-030 1.11319e-014 -6.36111e-015 6.36111e-015 7.95139e-015 -6.36111e-015 -6.36111e-015 1.59028e-015 9.54166e-015 1.23589e-030 1.11319e-014 -6.36111e-015 6.36111e-015 7.95139e-015 -6.36111e-015 -176.019 -8.5347 -168.547 161.473 47.5588 -129.524 14.3926 64.323 0.407774 177.511 -8.87436 169.434 -161.392 47.5946 129.456 -14.557 64.4736 -0.25522 
42.3483 -2.15081 -2.01081 -0 -79.1999 -0 -0.0192559 3.60107 -0.106125 -0.0319081 7.20215 -0.211663 -0.031908 7.20215 -0.211664 -10.0462 -14.7742 -22.0138 -7.20232e-008 -36.1215 -3.59406e-006 -1.15862 19.5406 -24.1157 -46.5989 9.10338 0.135377 -1.89843 12.0135 -2.22209 8.36291 35.9038 -18.5489 2.20695e-031 -3.97569e-015 3.18055e-015 2.20695e-031 -3.97569e-015 3.18055e-015 -3.18055e-015 -3.97569e-015 6.36111e-015 4.41391e-032 -7.95139e-016 3.18055e-015 3.18055e-015 7.95139e-016 3.18055e-015 -3.18055e-015 -4.77083e-015 9.54166e-015 -3.18055e-015 -2.38542e-015 -3.18055e-015 3.18055e-015 7.95139e-016 3.18055e-015 -3.18055e-015 -4.77083e-015 9.54166e-015 -3.18055e-015 -2.38542e-015 -3.18055e-015 4.41391e-032 -7.95139e-016 3.18055e-015 3.18055e-015 7.95139e-016 3.18055e-015 -3.18055e-015 -4.77083e-015 9.54166e-015 -3.18055e-015 -2.38542e-015 -3.18055e-015 3.18055e-015 7.95139e-016 3.18055e-015 -3.18055e-015 -4.77083e-015 9.54166e-015 -3.18055e-015 -2.38542e-015 -3.18055e-015 1.92713 19.6924 24.0672 46.5293 9.08976 0.584027 0.00342428 11.748 1.14798 -8.87333 35.3457 20.0363 -0 -1.59028e-015 -0 -3.18055e-015 -7.95139e-016 -0 4.41391e-032 7.95139e-016 -3.18055e-015 -3.18055e-015 0 3.18055e-015 -3.18055e-015 -5.56597e-015 9.54166e-015 6.36111e-015 -1.59028e-015 -9.54166e-015 6.36111e-015 -2.38542e-015 -6.36111e-015 -3.18055e-015 -5.56597e-015 9.54166e-015 6.36111e-015 -1.59028e-015 -9.54166e-015 6.36111e-015 -2.38542e-015 -6.36111e-015 -3.18055e-015 0 3.18055e-015 -3.18055e-015 -5.56597e-015 9.54166e-015 6.36111e-015 -1.59028e-015 -9.54166e-015 6.36111e-015 -2.38542e-015 -6.36111e-015 -3.18055e-015 -5.56597e-015 9.54166e-015 6.36111e-015 -1.59028e-015 -9.54166e-015 6.36111e-015 -2.38542e-015 -6.36111e-015 -176.047 -8.142 -168.581 161.472 47.5603 -129.525 14.3942 64.3257 0.405256 177.457 -8.2422 169.426 -161.519 47.3897 129.575 -14.552 64.4693 -0.258911 
42.3464 -2.13503 -2.05326 -0 -78.7993 -0 -0.0188613 3.50084 -0.106304 -0.0312888 7.00171 -0.212046 -0.0312888 7.00172 -0.212046 -10.1221 -14.7733 -22.1771 -7.85147e-007 -36.3416 -4.74573e-006 -1.77527 19.8927 -24.0418 -46.2102 9.04791 0.113731 -1.73615 11.957 -1.72876 8.67605 35.8396 -18.9791 -3.18055e-015 6.36111e-015 3.18055e-015 -2.20695e-031 3.97569e-015 3.18055e-015 -3.08973e-031 5.56597e-015 3.18055e-015 -6.36111e-015 3.18055e-015 3.18055e-015 6.36111e-015 7.15625e-015 6.36111e-015 -5.29669e-031 4.77083e-015 6.36111e-015 6.36111e-015 7.95139e-015 3.18055e-015 6.36111e-015 7.15625e-015 6.36111e-015 -5.29669e-031 4.77083e-015 6.36111e-015 6.36111e-015 7.95139e-015 3.18055e-015 -6.36111e-015 3.18055e-015 3.18055e-015 6.36111e-015 7.15625e-015 6.36111e-015 -5.29669e-031 4.77083e-015 6.36111e-015 6.36111e-015 7.95139e-015 3.18055e-015 6.36111e-015 7.15625e-015 6.36111e-015 -5.29669e-031 4.77083e-015 6.36111e-015 6.36111e-015 7.95139e-015 3.18055e-015 2.56341 20.0539 23.9853 46.1149 9.0317 0.599709 -0.163387 11.7075 0.662144 -9.17232 35.2699 20.46 -3.18055e-015 -1.59028e-015 -3.18055e-015 3.18055e-015 -7.95139e-016 3.18055e-015 -1.32417e-031 -2.38542e-015 -3.18055e-015 -3.18055e-015 0 -0 3.18055e-015 -2.38542e-014 6.36111e-015 0 0 -0 6.36111e-015 -7.95139e-016 -6.36111e-015 3.18055e-015 -2.38542e-014 6.36111e-015 0 0 -0 6.36111e-015 -7.95139e-016 -6.36111e-015 -3.18055e-015 0 -0 3.18055e-015 -2.38542e-014 6.36111e-015 0 0 -0 6.36111e-015 -7.95139e-016 -6.36111e-015 3.18055e-015 -2.38542e-014 6.36111e-015 0 0 -0 6.36111e-015 -7.95139e-016 -6.36111e-015 -176.075 -7.75036 -168.615 161.47 47.5628 -129.525 14.3958 64.3283 0.40275 177.401 -8.13001 169.393 -161.35 47.6619 129.419 -14.5472 64.4652 -0.262497 
42.3444 -2.1194 -2.09551 -0 -78.3987 -0 -0.0184675 3.40058 -0.106484 -0.030672 6.8012 -0.212431 -0.030672 6.8012 -0.212432 -10.1981 -14.7721 -22.3404 6.70991e-006 -36.5615 3.25717e-006 -2.39367 20.2441 -23.9637 -45.8215 8.99232 0.0924473 -1.57343 11.9017 -1.23545 8.98833 35.7735 -19.4085 6.36111e-015 -4.77083e-015 9.54166e-015 -0 -7.95139e-016 -0 6.36111e-015 -3.18055e-015 -0 3.18055e-015 -2.38542e-015 6.36111e-015 9.54166e-015 1.59028e-015 9.54166e-015 6.36111e-015 -6.36111e-015 -0 6.36111e-015 -4.77083e-015 3.18055e-015 9.54166e-015 1.59028e-015 9.54166e-015 6.36111e-015 -6.36111e-015 -0 6.36111e-015 -4.77083e-015 3.18055e-015 3.18055e-015 -2.38542e-015 6.36111e-015 9.54166e-015 1.59028e-015 9.54166e-015 6.36111e-015 -6.36111e-015 -0 6.36111e-015 -4.77083e-015 3.18055e-015 9.54166e-015 1.59028e-015 9.54166e-015 6.36111e-015 -6.36111e-015 -0 6.36111e-015 -4.77083e-015 3.18055e-015 3.20158 20.4146 23.8989 45.7005 8.97355 0.614953 -0.330478 11.6684 0.176338 -9.47032 35.1924 20.8829 1.76556e-031 3.18055e-015 -3.18055e-015 6.36111e-015 1.59028e-015 6.36111e-015 -3.18055e-015 0 -3.18055e-015 -1.32417e-031 2.38542e-015 3.18055e-015 6.36111e-015 -8.74653e-015 3.18055e-015 0 2.38542e-015 -0 0 2.38542e-015 -0 6.36111e-015 -8.74653e-015 3.18055e-015 0 2.38542e-015 -0 0 2.38542e-015 -0 -1.32417e-031 2.38542e-015 3.18055e-015 6.36111e-015 -8.74653e-015 3.18055e-015 0 2.38542e-015 -0 0 2.38542e-015 -0 6.36111e-015 -8.74653e-015 3.18055e-015 0 2.38542e-015 -0 0 2.38542e-015 -0 -176.102 -7.35689 -168.648 161.47 47.5636 -129.527 14.3975 64.3311 0.400154 177.351 -6.73846 169.422 -161.903 46.7592 129.933 -14.5424 64.4611 -0.266028 
42.3424 -2.10391 -2.13756 -0 -77.9981 -0 -0.0180746 3.30038 -0.106659 -0.0300582 6.60076 -0.212804 -0.0300582 6.60077 -0.212804 -10.2737 -14.7704 -22.5035 2.98186e-006 -36.7812 3.91074e-006 -3.01381 20.5945 -23.8814 -45.433 8.93659 0.071572 -1.41029 11.8479 -0.742197 9.29969 35.7055 -19.837 3.18055e-015 -5.56597e-015 6.36111e-015 1.19175e-030 -7.15625e-015 9.54166e-015 3.18055e-015 -4.77083e-015 6.36111e-015 0 0 -0 2.11868e-030 -1.27222e-014 9.54166e-015 6.36111e-015 -6.36111e-015 -3.18055e-015 5.29669e-031 -4.77083e-015 6.36111e-015 2.11868e-030 -1.27222e-014 9.54166e-015 6.36111e-015 -6.36111e-015 -3.18055e-015 5.29669e-031 -4.77083e-015 6.36111e-015 0 0 -0 2.11868e-030 -1.27222e-014 9.54166e-015 6.36111e-015 -6.36111e-015 -3.18055e-015 5.29669e-031 -4.77083e-015 6.36111e-015 2.11868e-030 -1.27222e-014 9.54166e-015 6.36111e-015 -6.36111e-015 -3.18055e-015 5.29669e-031 -4.77083e-015 6.36111e-015 3.84163 20.7742 23.8081 45.2863 8.91528 0.629771 -0.497847 11.6307 -0.309461 -9.76732 35.113 21.3048 4.41391e-032 7.95139e-016 -3.18055e-015 -3.18055e-015 1.59028e-015 -3.18055e-015 2.64834e-031 2.38542e-015 -6.36111e-015 -0 -3.18055e-015 -0 2.20695e-031 -3.97569e-015 3.18055e-015 5.29669e-031 4.77083e-015 -6.36111e-015 -3.18055e-015 1.59028e-015 -0 2.20695e-031 -3.97569e-015 3.18055e-015 5.29669e-031 4.77083e-015 -6.36111e-015 -3.18055e-015 1.59028e-015 -0 -0 -3.18055e-015 -0 2.20695e-031 -3.97569e-015 3.18055e-015 5.29669e-031 4.77083e-015 -6.36111e-015 -3.18055e-015 1.59028e-015 -0 2.20695e-031 -3.97569e-015 3.18055e-015 5.29669e-031 4.77083e-015 -6.36111e-015 -3.18055e-015 1.59028e-015 -0 -176.13 -6.95609 -168.682 161.474 47.5576 -129.532 14.399 64.3337 0.397676 177.293 -7.2039 169.362 -161.412 47.5627 129.478 -14.5376 64.4569 -0.269581 
42.3404 -2.0886 -2.17942 -0 -77.5976 -0 -0.0176825 3.20017 -0.106826 -0.0294472 6.40037 -0.21316 -0.0294471 6.40036 -0.21316 -10.3495 -14.7688 -22.6667 1.17067e-005 -37.0008 8.04056e-006 -3.6357 20.9439 -23.7949 -45.0446 8.88072 0.0510531 -1.24675 11.7955 -0.248942 9.61015 35.6357 -20.2647 -6.36111e-015 5.56597e-015 6.36111e-015 -6.36111e-015 2.38542e-015 6.36111e-015 -0 0 6.36111e-015 -3.18055e-015 3.97569e-015 3.18055e-015 -3.18055e-015 1.74931e-014 9.54166e-015 -3.18055e-015 1.59028e-015 6.36111e-015 -3.18055e-015 1.59028e-015 3.18055e-015 -3.18055e-015 1.74931e-014 9.54166e-015 -3.18055e-015 1.59028e-015 6.36111e-015 -3.18055e-015 1.59028e-015 3.18055e-015 -3.18055e-015 3.97569e-015 3.18055e-015 -3.18055e-015 1.74931e-014 9.54166e-015 -3.18055e-015 1.59028e-015 6.36111e-015 -3.18055e-015 1.59028e-015 3.18055e-015 -3.18055e-015 1.74931e-014 9.54166e-015 -3.18055e-015 1.59028e-015 6.36111e-015 -3.18055e-015 1.59028e-015 3.18055e-015 4.48358 21.1327 23.7127 44.8722 8.85692 0.644175 -0.66546 11.5943 -0.795179 -10.0633 35.0319 21.7257 3.18055e-015 -7.95139e-016 -6.36111e-015 -4.41391e-031 -3.97569e-015 -6.36111e-015 -3.18055e-015 -1.59028e-015 -6.36111e-015 3.18055e-015 2.38542e-015 -3.18055e-015 9.54166e-015 -7.15625e-015 -0 -2.64834e-031 -2.38542e-015 -6.36111e-015 3.18055e-015 -2.38542e-015 -6.36111e-015 9.54166e-015 -7.15625e-015 -0 -2.64834e-031 -2.38542e-015 -6.36111e-015 3.18055e-015 -2.38542e-015 -6.36111e-015 3.18055e-015 2.38542e-015 -3.18055e-015 9.54166e-015 -7.15625e-015 -0 -2.64834e-031 -2.38542e-015 -6.36111e-015 3.18055e-015 -2.38542e-015 -6.36111e-015 9.54166e-015 -7.15625e-015 -0 -2.64834e-031 -2.38542e-015 -6.36111e-015 3.18055e-015 -2.38542e-015 -6.36111e-015 -176.157 -6.56916 -168.715 161.47 47.5643 -129.53 14.4006 64.3364 0.395128 177.239 -6.79334 169.345 -161.414 47.5611 129.479 -14.5328 64.4528 -0.273154 
